<?xml version="1.0" encoding="UTF-8"?><svg id="Layer_1" xmlns="http://www.w3.org/2000/svg" viewBox="0 0 2400 630"><defs><style>.cls-1{fill:#fff;}</style></defs><path class="cls-1" d="M525.56085,263.44162c.0861-67.07756-25.4601-134.18191-76.63859-185.3604C397.82973,26.98869,330.86479,1.44242,263.89985,1.44242l-.33755,103.11719c87.74788,.00001,158.88157,71.13373,158.88156,158.88161l103.117,.00041Z"/><path class="cls-1" d="M263.55916,104.55982c-67.07756-.0861-134.18191,25.4601-185.3604,76.63859C27.10623,232.29094,1.55996,299.25588,1.55996,366.22083l103.11719,.33755c.00001-87.74788,71.13373-158.88157,158.88161-158.88156l.00041-103.117Z"/><path class="cls-1" d="M104.67736,366.55838c-.0861,67.07756,25.4601,134.18191,76.63859,185.3604,51.09253,51.09253,118.05747,76.6388,185.02242,76.6388l.33755-103.11719c-87.74788-.00001-158.88157-71.13373-158.88156-158.88161l-103.117-.00041Z"/><path class="cls-1" d="M366.67905,525.44018c67.07756,.0861,134.18191-25.4601,185.3604-76.63859,51.09253-51.09253,76.6388-118.05747,76.6388-185.02242l-103.11719-.33755c-.00001,87.74788-71.13373,158.88157-158.88161,158.88156l-.00041,103.117Z"/><g><path class="cls-1" d="M916.35726,467.697c-23.92706,0-43.10111-5.82359-57.517-17.48456-14.42278-11.6558-21.62727-32.36074-21.62727-62.12001v-99.38891h-39.11183v-49.23502h39.11183l6.9028-61.19941h51.9951v61.19941h61.65971v49.23502h-61.65971v99.84921c0,11.04379,2.37219,18.63618,7.13209,22.77716,4.753,4.14099,12.95568,6.21148,24.61837,6.21148h28.52835v50.15562h-40.03244Z"/><path class="cls-1" d="M1093.96639,473.21889c-28.52835,0-50.54351-8.89399-66.02999-26.68886-15.49337-17.78626-23.23574-43.86311-23.23574-78.22366V239.4685h58.4376v123.31597c0,19.63608,3.98238,34.66915,11.96267,45.09403,7.97339,10.43178,20.54806,15.64508,37.73265,15.64508,16.25537,0,29.67824-5.82359,40.26172-17.48456,10.58349-11.6558,15.87437-27.91116,15.87437-48.77472v-117.7958h58.8979v228.2285h-51.9951l-4.60129-38.65153c-7.0614,13.50218-17.25527,24.23565-30.60057,32.20903-13.34357,7.97339-28.91624,11.96439-46.70422,11.96439Z"/><path class="cls-1" d="M1288.13947,467.697V239.4685h52.4554l5.52189,42.79252c8.28198-14.72447,19.55678-26.45785,33.82095-35.20013,14.26417-8.744,31.05914-13.11428,50.38491-13.11428v62.11829h-16.56568c-12.88327,0-24.38736,1.99809-34.51054,5.9822-10.12318,3.98928-18.02416,10.89208-23.69604,20.70667-5.6805,9.81976-8.51299,23.46675-8.51299,40.95131v103.99193h-58.8979Z"/><path class="cls-1" d="M1605.6337,473.21889c-17.18459,0-32.21076-3.22039-45.0923-9.66288-12.88155-6.4425-23.31504-15.48647-31.2936-27.14917l-6.43905,31.29016h-52.4554V136.39717h58.89445v135.74066c7.36482-10.12318,17.10184-19.01717,29.22483-26.68886,12.1092-7.66307,27.83876-11.50236,47.16107-11.50236,21.46694,0,40.64445,5.21847,57.51872,15.64508,16.86738,10.43178,30.21095,24.69595,40.03071,42.79252,9.81114,18.10347,14.72103,38.65153,14.72103,61.65798,0,23.00818-4.90988,43.48383-14.72103,61.4287-9.81976,17.94659-23.16334,32.05905-40.03071,42.33394-16.87427,10.27317-36.05178,15.41407-57.51872,15.41407Zm-12.42642-51.53652c18.70858,0,34.20367-6.28389,46.47838-18.86546,12.26781-12.57468,18.40516-28.83004,18.40516-48.77472,0-19.93605-6.13735-36.35002-18.40516-49.23502-12.27471-12.88327-27.7698-19.32577-46.47838-19.32577-19.0189,0-34.58984,6.37009-46.69905,19.09648-12.123,12.73328-18.1776,29.06795-18.1776,49.004,0,19.94467,6.0546,36.27934,18.1776,49.00573,12.1092,12.73328,27.68015,19.09475,46.69905,19.09475Z"/><path class="cls-1" d="M1802.11002,204.03735c-10.74382,0-19.55678-3.22039-26.45958-9.66288-6.9028-6.4425-10.3542-14.56587-10.3542-24.38736,0-9.81459,3.4514-17.86728,10.3542-24.15807,6.9028-6.28389,15.71576-9.43187,26.45958-9.43187,10.73347,0,19.55333,3.14798,26.45613,9.43187,6.9028,6.29079,10.3542,14.34348,10.3542,24.15807,0,9.82149-3.4514,17.94486-10.3542,24.38736-6.9028,6.4425-15.72266,9.66288-26.45613,9.66288Zm-29.44895,263.65964V239.4685h58.8979v228.2285h-58.8979Z"/><path class="cls-1" d="M1893.21178,467.697V239.4685h51.99855l4.59957,38.65153c7.05451-13.49528,17.25699-24.23048,30.60057-32.21076,13.34357-7.97339,29.05933-11.96267,47.16452-11.96267,28.21803,0,50.1539,8.90089,65.79725,26.68714,15.6468,17.79488,23.4702,43.87173,23.4702,78.22366v128.83959h-58.8979v-123.31769c0-19.62746-3.99273-34.66053-11.96439-45.09403-7.98201-10.42488-20.40497-15.64335-37.27235-15.64335-16.56396,0-30.13854,5.83049-40.7203,17.48456-10.58521,11.66097-15.87781,27.91806-15.87781,48.77472v117.7958h-58.8979Z"/><path class="cls-1" d="M2283.86808,473.21889c-23.00818,0-43.41315-4.91161-61.20113-14.72447-17.79488-9.81459-31.74873-23.61846-41.87192-41.41334-10.12318-17.78626-15.18478-38.34122-15.18478-61.65798,0-23.61846,4.98229-44.63373,14.95376-63.03889,9.96803-18.40516,23.77017-32.74174,41.41334-43.02353,17.63627-10.27317,38.42397-15.41407,62.3493-15.41407,22.38755,0,42.17534,4.90988,59.35992,14.72447,17.17424,9.82149,30.59712,23.23574,40.26172,40.26172,9.66116,17.02598,14.49174,35.97075,14.49174,56.8274,0,3.37899-.0793,6.9028-.22756,10.58349-.15861,3.68069-.38962,7.51998-.68959,11.50236h-173.47331c1.22057,17.79488,7.43378,31.75046,18.63618,41.87364,11.19205,10.12318,24.76663,15.18478,40.7203,15.18478,11.96439,0,22.00827-2.68251,30.13854-8.05269,8.12682-5.36329,14.18487-12.34539,18.1776-20.93596h59.8185c-4.29959,14.42106-11.43341,27.53534-21.39798,39.34112-9.97147,11.81268-22.24618,21.09456-36.81033,27.83876-14.57449,6.74419-31.05914,10.12318-49.46431,10.12318Zm.45858-191.41817c-14.42278,0-27.14917,4.06858-38.19295,12.19368-11.04034,8.13199-18.10174,20.47566-21.16352,37.04134h113.65481c-.9206-15.02617-6.44422-26.99056-16.5674-35.89145-10.12318-8.89399-22.70476-13.34357-37.73093-13.34357Z"/></g></svg>